<svg id="Capa_1" enable-background="new 0 0 512 512" height="512" viewBox="0 0 512 512" width="512" xmlns="http://www.w3.org/2000/svg"><g><g><g><path d="m256 160c-3.839 0-7.678-1.464-10.606-4.394l-64.907-64.907c-20.716-20.715-20.716-54.422 0-75.138 10.034-10.035 23.376-15.561 37.568-15.561s27.534 5.526 37.569 15.562c.126.126.251.252.376.379.125-.127.249-.253.375-.379 10.036-10.036 23.378-15.562 37.57-15.562 14.191 0 27.533 5.526 37.568 15.562 20.716 20.716 20.716 54.422 0 75.138l-64.907 64.907c-2.928 2.929-6.767 4.393-10.606 4.393z"/></g></g><g><g><path d="m420.949 270c-3.839 0-7.678-1.464-10.606-4.394l-64.907-64.907c-20.716-20.715-20.716-54.422 0-75.138 10.035-10.035 23.377-15.561 37.568-15.561 14.192 0 27.534 5.526 37.569 15.562.126.126.251.252.376.379.125-.127.249-.253.375-.379 10.037-10.036 23.378-15.562 37.571-15.562 14.191 0 27.533 5.526 37.568 15.562 20.716 20.716 20.716 54.422 0 75.138l-64.907 64.907c-2.929 2.929-6.768 4.393-10.607 4.393z"/></g></g><g><g><path d="m91.051 270c-3.839 0-7.678-1.464-10.606-4.394l-64.907-64.907c-20.716-20.715-20.716-54.422 0-75.138 20.717-20.714 54.423-20.715 75.138 0 .126.126.251.252.376.379.125-.127.249-.253.375-.379 10.035-10.035 23.376-15.561 37.569-15.561 14.191 0 27.533 5.526 37.568 15.562 20.716 20.716 20.716 54.422 0 75.138l-64.907 64.907c-2.929 2.929-6.768 4.393-10.606 4.393z"/></g></g><g><path d="m83.5 392c-24.813 0-45-20.187-45-45s20.187-45 45-45 45 20.187 45 45-20.187 45-45 45z"/><g><path d="m37.385 406.082c-21.952 14.825-36.385 39.936-36.385 68.418v22.5c0 8.284 6.716 15 15 15h120v-40c0-17.898 3.946-34.89 11.002-50.162-5.013-6.038-10.875-11.345-17.396-15.749-12.73 9.955-28.731 15.911-46.106 15.911-17.38 0-33.384-5.958-46.115-15.918z"/><path d="m474.615 406.082c-12.731 9.96-28.735 15.918-46.115 15.918-17.375 0-33.376-5.956-46.106-15.911-6.521 4.404-12.382 9.711-17.396 15.749 7.056 15.272 11.002 32.264 11.002 50.162v40h120c8.284 0 15-6.716 15-15v-22.5c0-28.482-14.433-53.593-36.385-68.418z"/></g><path d="m428.5 392c-24.813 0-45-20.187-45-45s20.187-45 45-45 45 20.187 45 45-20.187 45-45 45z"/><g><path d="m304.918 396.448c-13.845 9.781-30.715 15.552-48.918 15.552s-35.073-5.771-48.918-15.552c-24.724 16.041-41.082 43.885-41.082 75.552v40h180v-40c0-31.667-16.358-59.511-41.082-75.552z"/></g><path d="m256 382c-30.327 0-55-24.673-55-55s24.673-55 55-55 55 24.673 55 55-24.673 55-55 55z"/></g></g></svg>