<svg id="Layer_1" enable-background="new 0 0 256 256" height="512" viewBox="0 0 256 256" width="512" xmlns="http://www.w3.org/2000/svg"><g><g fill="#ebe7f2"><path d="m86.963 67.122c-1.381 0-2.5-1.119-2.5-2.5v-16.271c0-1.381 1.119-2.5 2.5-2.5s2.5 1.119 2.5 2.5v16.271c0 1.38-1.119 2.5-2.5 2.5z"/><path d="m107.481 67.122c-1.381 0-2.5-1.119-2.5-2.5v-16.271c0-1.381 1.119-2.5 2.5-2.5s2.5 1.119 2.5 2.5v16.271c0 1.38-1.119 2.5-2.5 2.5z"/><path d="m128 67.122c-1.381 0-2.5-1.119-2.5-2.5v-16.271c0-1.381 1.119-2.5 2.5-2.5s2.5 1.119 2.5 2.5v16.271c0 1.38-1.119 2.5-2.5 2.5z"/><path d="m148.519 67.122c-1.381 0-2.5-1.119-2.5-2.5v-16.271c0-1.381 1.119-2.5 2.5-2.5s2.5 1.119 2.5 2.5v16.271c0 1.38-1.12 2.5-2.5 2.5z"/><path d="m169.037 67.122c-1.381 0-2.5-1.119-2.5-2.5v-16.271c0-1.381 1.119-2.5 2.5-2.5s2.5 1.119 2.5 2.5v16.271c0 1.38-1.119 2.5-2.5 2.5z"/></g><g fill="#846f75"><path d="m183.36 97.555c-6.789-5.54-10.683-13.741-10.683-22.503 0-1.381-1.119-2.5-2.5-2.5s-2.5 1.119-2.5 2.5c0 10.27 4.564 19.884 12.522 26.377 6.788 5.54 10.682 13.741 10.682 22.503v84.644c0 5.356-4.357 9.714-9.714 9.714h-106.335c-5.356 0-9.714-4.357-9.714-9.714v-84.644c0-8.762 3.894-16.963 10.682-22.503 7.958-6.493 12.522-16.107 12.522-26.377 0-1.381-1.119-2.5-2.5-2.5s-2.5 1.119-2.5 2.5c0 8.762-3.894 16.963-10.683 22.503-7.958 6.493-12.521 16.107-12.521 26.377v84.644c0 8.113 6.601 14.714 14.714 14.714h106.336c8.113 0 14.714-6.601 14.714-14.714v-84.644c0-10.27-4.564-19.884-12.522-26.377z"/><path d="m77.387 67.122h101.227c4.746 0 8.606-3.861 8.606-8.607v-17.198c0-4.746-3.86-8.607-8.606-8.607h-101.227c-4.746 0-8.606 3.861-8.606 8.607v17.197c-.001 4.747 3.86 8.608 8.606 8.608zm-3.607-25.805c0-1.989 1.618-3.607 3.606-3.607h101.227c1.988 0 3.606 1.618 3.606 3.607v17.197c0 1.989-1.618 3.607-3.606 3.607h-101.226c-1.988 0-3.606-1.618-3.606-3.607v-17.197z"/><path d="m84.988 156c0 23.717 19.295 43.012 43.012 43.012s43.012-19.295 43.012-43.012-19.295-43.012-43.012-43.012-43.012 19.295-43.012 43.012zm43.012-38.012c20.96 0 38.012 17.052 38.012 38.012s-17.052 38.012-38.012 38.012-38.012-17.052-38.012-38.012 17.052-38.012 38.012-38.012z"/></g><path d="m128 153.5c-4.396 0-7.971-3.576-7.971-7.971s3.575-7.971 7.971-7.971 7.971 3.576 7.971 7.971c0 1.381 1.119 2.5 2.5 2.5s2.5-1.119 2.5-2.5c0-6.297-4.511-11.555-10.471-12.724v-2.681c0-1.381-1.119-2.5-2.5-2.5s-2.5 1.119-2.5 2.5v2.681c-5.959 1.169-10.471 6.427-10.471 12.724 0 7.152 5.818 12.971 12.971 12.971 4.396 0 7.971 3.576 7.971 7.971s-3.575 7.971-7.971 7.971-7.971-3.576-7.971-7.971c0-1.381-1.119-2.5-2.5-2.5s-2.5 1.119-2.5 2.5c0 6.297 4.511 11.555 10.471 12.724v2.681c0 1.381 1.119 2.5 2.5 2.5s2.5-1.119 2.5-2.5v-2.681c5.959-1.169 10.471-6.427 10.471-12.724 0-7.152-5.819-12.971-12.971-12.971z" fill="#f9b087"/></g></svg>